<?xml version="1.0" encoding="utf-8"?>
<!-- Generator: Adobe Illustrator 21.1.0, SVG Export Plug-In . SVG Version: 6.00 Build 0)  -->
<svg version="1.1" id="レイヤー_1" xmlns="http://www.w3.org/2000/svg" xmlns:xlink="http://www.w3.org/1999/xlink" x="0px"
	 y="0px" viewBox="0 0 279 105" style="enable-background:new 0 0 279 105;" xml:space="preserve">
<style type="text/css">
	.st0{fill:#F5F7F2;}
</style>
<g>
	<g>
		<g>
			<path class="st0" d="M74.4,12.9c-0.3-0.8-1.1-1.7-1.7-2.2c-0.6-0.4-1.2-0.6-2.1-0.6c-1.9,0-5.2,0.3-8.5,0.3
				c-3.6,0-7.1-0.4-10.3-0.5c-3,0-5.9,0.3-8.8,0.3c-2.8,0-5.7-0.4-8.4-0.5c-2.7-0.1-5.3,0-8,0.2c-2.6,0.2-5.3,0.6-7.2,1.1
				c-1.3,0.3-2.2,0.6-3.2,0.8c-0.8,0.2-1.7,0.2-2.4,0.3c-0.5,0-0.8,0-1.1-0.1c-0.2-0.1-0.4-0.2-0.6-0.2c-0.1,0-0.2,0-0.3,0
				c-0.1,0-0.3,0.2-0.4,0.4c0,0.4,0.4,0.9,0.7,1.3c0.2,0.3,0.3,0.5,0.5,0.7c0.4,0.2,1.3,0.3,2.3,0.1c1.5-0.2,3.3-1,5.4-1.6
				c2.5-0.7,5.6-1.1,8.2-1.3c2.6-0.1,4.8,0,8,0.1c2.9,0,6.5,0,6.8,0.2c0,0,0,0.1,0,0.2c-0.1,0.3-0.3,0.8-0.4,1.4
				c-0.1,0.8-0.1,1.6,0.2,2.4c0.5,1.1,1.6,2.3,2.4,3.6c0.9,1.4,1.5,2.9,1.9,4.8c0.6,2.5,0.9,5.6,1.1,8.6c0.2,3.2,0.7,6.1,0.7,9.2
				c0.1,3.2,0.4,5,0.1,7.9c-0.3,3.2-0.5,6.2-0.7,8.9c-0.2,2.9-0.4,5-0.7,8c-0.2,2.6-0.4,3.7-0.7,7.7c-0.2,2.8-0.2,2.3-0.3,5.2
				c0,2.6-0.2,5.1-0.6,6.9c-0.2,1.1-0.5,1.9-1,2.1c-0.3,0.1-0.7,0-1,0.2c-0.4,0.3-0.6,1.4-0.3,2.1c0.3,0.7,1,1,1.5,1.9
				c0.6,1.1,0.7,3.1,1.3,3.6c0.3,0.3,0.7,0.1,1-0.2c0.4-0.5,0.5-1.5,0.5-2.2c0-0.6-0.2-1-0.2-1.7c0-1.1,0.3-2.9,0.6-3.9
				c0.2-0.6,0.5-0.8,0.6-1.3c0.1-0.6-0.1-1.6-0.2-2.5c-0.1-1.1-0.1-2.2-0.1-3.9c0-3.1-0.1-4.7,0.2-9c0.3-4.3,0.5-6.3,0.6-9.5
				c0.1-3,0.5-6.8,0.7-10.2c0.3-4,0-6.5,0-9.6c0-2.8-0.3-5.5-0.5-8.1c-0.2-2.7-0.6-5.4-1.2-8.1c-0.5-2.5-1.1-5-2.1-6.9
				c-0.8-1.5-1.8-2.6-2.1-3.6c-0.2-0.6-0.1-1.2,0.2-1.5c0.4-0.4,1.2-0.5,2.2-0.5c1.7,0,4.2-0.3,6.6,0.1c2.9,0.5,4.2,0.6,6.4,0.9
				c3.5,0.5,4.4,0.7,7.2,0.5c2.6-0.1,6-0.8,6.9-1.3C74.6,14,74.6,13.5,74.4,12.9z M69.3,12.7c-0.3,0.6-0.9,0.5-1.7,0.7
				c-3.4,0.5-6.5-0.3-6.5-0.3s3.9-0.5,5.5-0.4C68.1,12.7,69.6,12.1,69.3,12.7z"/>
		</g>
	</g>
	<g>
		<g>
			<path class="st0" d="M171.5,22.6c0.3,0.3,0.4,0.6,0.3,0.9l-0.1,0.4l-0.2,1.6c0.3-0.1,0.6,0,1,0.2c0.6,0.3,0.6,0.6,0.2,1
				c-0.4,0.3-0.8,0.8-1.4,1.5l-0.2,1.8c2.5-2,4.1-3.3,4.9-3.7c0.7-0.4,1.5-0.6,2.2-0.6c2.1,0,3.2,1.6,3.2,4.7c0,1-0.2,2.1-0.6,3.3
				c0.5,0.3,0.9,0.5,1.2,0.8c0.5,0.4,0.5,0.9,0.2,1.4c-0.3,0.3-0.6,0.3-0.9,0.1l-1.3-1c-1,0.5-2,0.8-2.8,0.8c-0.8,0-1.3-0.2-1.6-0.5
				c-0.2-0.2-0.3-0.4-0.3-0.6c0-1.1,0.9-1.6,2.7-1.6c0.4,0,0.9,0.1,1.5,0.2c0.3-1.1,0.4-2.2,0.4-3.4c0-2.4-0.6-3.6-1.8-3.6
				c-0.4,0-1.1,0.3-1.9,0.8c-1,0.6-2.7,2-5,4.1c-0.1,1-0.2,2.2-0.2,3.4v1.3c0,0.8-0.2,1.2-0.5,1.3c-0.4,0.1-0.7-0.2-0.9-0.7
				c-0.1-0.3-0.1-0.7-0.1-1l0.5-3.1c-0.9,0.8-1.7,1.8-2.6,3.1c-0.2,0.1-0.4,0-0.5-0.3c-0.2-0.7-0.2-1.4,0-1.9
				c1.2-1.5,2.4-3.2,3.4-5.2c0.1-0.3,0.1-0.5,0.1-0.7l-1.5,0.6c-0.2,0.1-0.4,0.1-0.6,0.1c-0.3-0.1-0.5-0.1-0.8-0.2
				c-0.1-0.1-0.1-0.1,0-0.2c0.4-0.1,1.4-0.5,3-1.3v-2.9c0-0.4-0.2-0.7-0.5-1.1c-0.1-0.3,0-0.5,0.3-0.4
				C170.8,22,171.2,22.2,171.5,22.6z M168.5,32.3c-0.1,0.3,0.1,0.3,0.3,0l1.3-1.4c0.1-0.5,0.1-0.9,0.1-1.2
				C169.4,30.7,168.9,31.6,168.5,32.3z M175.7,34.3c0,0.4,0.3,0.6,1,0.6c1,0,1.7-0.3,2.2-0.8c-0.4-0.3-1-0.4-1.8-0.4
				C176.1,33.7,175.7,33.9,175.7,34.3z"/>
			<path class="st0" d="M192.7,34.4c0.6,0.2,1.1,0.3,1.5,0.3c0.3,0.1,0.9,0.1,1.8,0.1c0.8,0,1.6-0.1,2.4-0.2
				c0.5-0.1,0.9-0.2,1.2-0.3c0.5,0.1,0.9,0.1,1.3,0.2c0.3,0.2,0.5,0.4,0.6,0.6c0.1,0.3-0.1,0.5-0.5,0.6c-0.9,0.2-2.3,0.3-4.2,0.3
				c-2.1,0-3.6-0.3-4.6-0.8c-1-0.6-1.5-1.3-1.5-2.2c0-0.3,0.1-0.6,0.2-0.9c0.2-0.3,0.3-0.3,0.3,0C191.1,33.3,191.6,34,192.7,34.4z
				 M199.7,25c0.1,0.2,0,0.4-0.1,0.6c-0.1,0.2-0.5,0.3-1,0.3c-0.5,0.1-1.2,0.2-2.1,0.5c-0.3,0.1-0.4,0-0.2-0.2l0.8-0.7
				c0.1-0.1,0.1-0.2,0-0.3c-0.3-0.3-0.8-0.6-1.6-0.7c-1-0.2-2.2-0.3-3.4-0.3c-0.4-0.1-0.3-0.2,0.2-0.3c1-0.2,2-0.3,3-0.3
				C198,23.6,199.5,24.1,199.7,25z"/>
			<path class="st0" d="M222.5,25.9c0.9,0.9,1.4,2.2,1.4,3.8c0,1.3-0.5,2.5-1.5,3.6c-0.9,1-2.1,1.8-3.8,2.6
				c-0.3,0.1-0.3,0.1-0.2-0.2c1.3-1.1,2.3-2,3-2.9c0.7-0.9,1-2.1,1-3.4c0-1.3-0.4-2.3-1.2-3.1c-0.9-0.9-1.8-1.3-2.9-1.3
				c-0.6,0-1.1,0-1.3,0.1c0.1,0.3,0.2,0.6,0.2,1c0,0.5-0.2,1.2-0.6,2.1c-0.4,1-0.9,2-1.4,2.8c-1.2,1.9-2,3-2.6,3.5
				c-0.5,0.4-0.9,0.6-1.2,0.6c-0.6,0-1-0.8-1.3-2.3c-0.2-0.9-0.3-1.6-0.4-2.3c0-1.3,0.9-2.7,2.6-4.1c1.8-1.4,3.8-2.1,6.1-2.1
				C220.1,24.2,221.4,24.7,222.5,25.9z M212.3,27.6c-1,1-1.5,2.2-1.5,3.4c0,1.4,0.3,2.2,1,2.2c0.2,0,0.3-0.1,0.5-0.2
				c1.1-1.1,2.1-2.5,3.1-4.4c0.7-1.3,1-2.4,1-3.4C214.8,25.7,213.4,26.5,212.3,27.6z"/>
			<path class="st0" d="M237.7,20.7c0.4,0,0.8,0.1,1,0.2c0.2,0.2,0.5,0.4,0.8,0.6c0.1,0.2,0.1,0.4,0,0.6c-0.1,0.3-0.2,0.7-0.3,1.2
				c0.5-0.1,1.2-0.2,2.1-0.4c0.4-0.1,0.8-0.2,1.2-0.3c0.2-0.2,0.3-0.3,0.5-0.4c0.8-0.1,1.5,0.1,2,0.6c0.4,0.2,0.3,0.5-0.2,0.9
				c-0.9,0.1-1.7,0.1-2.4,0.1c-0.8,0.1-1.5,0.1-2.2,0.2c-1.7,0.3-3.8,0.6-6.3,1c0.5,0.3,0.7,0.6,0.7,0.8c0,0.4,0,0.7-0.1,0.9
				c-0.4,2.7-0.9,4.9-1.7,6.6c-0.5,1.4-1.5,2.9-2.9,4.5c-0.3,0.2-0.4,0.1-0.2-0.2c0.7-1.2,1.3-2.2,1.7-3.2c0.4-0.9,0.7-2,1.1-3.4
				c-0.9,0.9-1.6,1.6-1.9,2c-0.2,0.2-0.6,0.2-1,0c-0.3-0.1-0.6-0.3-0.9-0.7c-0.1-0.3-0.1-0.4,0.2-0.4c0.2,0.1,0.3,0.1,0.5,0.1
				c0.9-0.4,2-1,3.3-1.8c0.2-0.7,0.3-1.5,0.3-2.3c0.1-0.6,0.1-1.5,0.1-2.6c-0.1-0.2-0.2-0.3-0.3-0.4c-0.2-0.3-0.1-0.4,0.1-0.4
				c0.2,0.1,0.3,0.1,0.5,0.2c1.6-0.3,3.2-0.6,4.9-0.9c-0.1-0.5-0.1-1.1-0.2-1.7c-0.2-0.3-0.3-0.5-0.6-0.6
				C237.2,21,237.3,20.8,237.7,20.7z M231.8,27.1c0.5,0.4,0.7,0.9,0.6,1.4c-0.1,0.5-0.4,0.7-0.8,0.6c-0.5-0.3-0.9-1.1-1.4-2.3
				c-0.1-0.2,0-0.3,0.2-0.2C230.8,26.7,231.2,26.8,231.8,27.1z M243.4,26.4c0.3,0.3,0.3,0.6-0.1,0.7c-0.2,0.1-0.6,0.1-1.2,0.2
				c-0.6,0.1-1.7,0.2-3.3,0.5c0.1,0.1,0.3,0.2,0.6,0.4c0.7,0.2,1,0.6,1,1.1c0,0.4-0.1,0.9-0.2,1.4c1.2-0.2,2.5-0.5,3.7-0.7
				c0.2-0.1,0.4-0.2,0.6-0.2c0.6,0.1,1.1,0.3,1.5,0.7c0.3,0.2,0.2,0.3-0.2,0.6c-0.2,1.4-0.3,2.6-0.5,3.5c-0.1,0.6-0.2,1.6-0.5,2.7
				c-0.2,0.6-0.5,1.1-0.7,1.4c-0.2,0.2-0.3,0.1-0.6-0.2c-0.6-0.7-1.3-1.4-2-1.8c-0.2-0.2-0.1-0.3,0.1-0.3c0.3,0.1,0.9,0.1,1.6,0.1
				c0.3,0.1,0.5-0.2,0.6-0.7c0.2-1.7,0.4-3.3,0.5-4.8c-1.3,0.2-2.8,0.4-4.4,0.6c-0.8,1.8-1.7,3.2-2.9,4.2c-0.4,0.3-0.6,0.2-0.4-0.1
				c0.3-0.2,0.7-0.7,1-1.4c0.3-0.6,0.6-1.4,0.9-2.3c-1,0.2-2.1,0.4-3.1,0.6c0.3,1.1,0.6,2.3,0.7,3.4c0.1,0.4,0.1,0.7,0.1,1
				c-0.2,0.6-0.4,0.8-0.8,0.6c-0.5-0.5-0.8-1.1-0.7-1.8c0-0.3,0-0.6,0-0.9c-0.1-0.6-0.1-1.4-0.2-2.2c-0.1-0.4-0.2-0.7-0.3-0.9
				c-0.1-0.2,0-0.3,0.2-0.3c0.2,0.1,0.6,0.2,1,0.4c1.1-0.3,2.2-0.5,3.3-0.8c0.1-0.7,0.2-1.4,0.2-2.2c-0.3-0.4-0.5-0.7-0.6-1
				c-1.1,0.3-1.8,0.5-2.2,0.6c-0.2,0-0.5-0.1-0.9-0.3c-0.2-0.2-0.1-0.3,0.2-0.3c1-0.2,2.8-0.6,5.3-1.3c0.2-0.1,0.3-0.2,0.5-0.3
				c0-0.2,0.1-0.3,0.4-0.3C242.4,26,243,26.1,243.4,26.4z M242.5,33.1c0.4,0.3,0.6,0.6,0.6,1.1c0.1,0.6-0.1,0.8-0.6,0.6
				c-1-0.5-1.9-1.2-2.6-2.1c-0.2-0.2-0.1-0.3,0.2-0.2C240.9,32.8,241.7,33,242.5,33.1z"/>
			<path class="st0" d="M256.7,22.7c0.3,0.3,0.2,0.4-0.2,0.5l-1.5,2.6c-0.1,0.2,0,0.3,0.3,0.5c0.9,0.7,1.3,1.7,1.4,2.8
				c0,0.4-0.2,1-0.6,1.8c-0.1,0.2-0.3,0.3-0.5,0.2c-0.4-0.3-1.1-0.9-2.2-1.8c-0.1-0.2-0.1-0.2,0-0.2c0.9,0.2,1.4,0.2,1.5,0.2
				c0.2-0.1,0.3-0.4,0.3-0.8c0-0.6-0.2-1.3-0.6-1.9c-0.2-0.2-0.3-0.4-0.3-0.5c0.3-1.3,0.5-2.2,0.6-2.9l-1.8,0.9l0.2,0.4
				c-0.1,0.3-0.1,0.7-0.1,1.2v1.6c0,1.1,0,3-0.1,5.8c0,1.7,0,3.1-0.1,4.1c-0.1,0.8-0.2,1.2-0.5,1.1c-0.2,0-0.3-0.2-0.6-0.6
				c-0.3-0.6-0.4-1.2-0.5-1.8c0.1-0.7,0.2-1.8,0.3-3.1c0.1-0.6,0.2-2,0.2-4.2c0.1-1.2,0.1-2.5,0.1-3.7c0-0.6-0.1-0.9-0.2-1
				c0-0.2,0.1-0.3,0.2-0.3c0.1-0.1,0.3-0.1,0.6-0.1c0.6,0,1.3-0.4,2.2-1.3c0.1-0.2,0.3-0.2,0.5-0.2
				C256.1,22.2,256.5,22.5,256.7,22.7z M266.8,28.7c0.8,0.5,0.9,0.8,0.4,1l-0.2,0.1c-1.3,0.1-3.2,0.2-5.5,0.6c0.6,0.2,1.1,0.5,1.4,1
				v0.5c-0.2,0.5-0.3,1-0.3,1.6v2c0,0.3,0.1,0.6,0.4,0.7c0.3,0.1,0.7,0.2,1.1,0.2h0.6c1.3,0,2.2-0.2,2.6-0.5
				c0.3-0.3,0.5-1.2,0.8-2.6c0-0.2,0.1-0.2,0.2,0c0.2,1,0.4,1.6,0.5,2c0.1,0.2,0.2,0.5,0.6,1c0.2,0.2,0.1,0.3-0.2,0.6
				c-0.6,0.3-1.2,0.5-1.9,0.6c-0.6,0.1-1.9,0.1-3.7,0.1c-0.7-0.1-1.3-0.3-1.8-0.9c-0.2-0.3-0.3-0.8-0.3-1.5v-3.6
				c-0.2-0.3-0.3-0.6-0.4-0.8l-1.1,0.2c0.3,0.2,0.5,0.4,0.6,0.6c0,0.2,0,0.2-0.1,0.2c-1.1,2.6-2.9,4.7-5.5,6.3
				c-0.3,0.1-0.3,0-0.2-0.2c1.3-1.2,2.3-2.5,3-3.8c0.7-1.3,1.1-2.1,1.1-2.3c0-0.3-0.1-0.5-0.4-0.4l-1.2,0.4c-0.2,0-0.5-0.1-1-0.4
				c-0.2-0.2-0.2-0.2,0-0.2l0.6-0.2c2.2-0.6,4.5-1.2,6.7-1.7c0.5-0.1,0.9-0.3,1.2-0.6c0.2-0.2,0.4-0.2,0.6-0.2
				C266.2,28.4,266.6,28.6,266.8,28.7z M261.7,21.1c0.3,0.1,0.5,0.2,0.6,0.4c0.1,0.1,0.1,0.3,0,0.7c-0.1,0.4-0.2,0.8-0.2,1.3
				c1.6-0.3,2.6-0.5,3-0.6c0.2-0.1,0.3-0.2,0.6-0.2c0.7,0.3,1.4,0.8,2,1.4c0.3,0.3,0.2,0.5-0.2,0.5c-0.4,0.1-1,0.3-1.6,0.6
				c-0.6,0.4-1.1,0.7-1.7,0.9c-0.2,0.1-0.3,0-0.2-0.2l1.3-1.9v-0.2c-0.1-0.1-0.2-0.1-0.3-0.1l-6.7,1.2c0,0.7-0.1,1.4-0.3,2.1
				c-0.2,0.3-0.4,0.5-0.7,0.5c-0.2,0-0.4-0.2-0.6-0.6c-0.1-0.2-0.1-0.5,0-0.8c0.5-0.7,0.7-1.5,0.7-2.2c0.1-0.3,0.2-0.3,0.4,0
				c0.1,0.2,0.2,0.3,0.3,0.5l2.9-0.6c-0.2-0.4-0.3-0.8-0.3-1.4c-0.1-0.2-0.1-0.3-0.2-0.4c-0.2-0.2-0.3-0.4-0.4-0.6
				c-0.1-0.2,0-0.3,0.2-0.3C260.7,21,261.2,21.1,261.7,21.1z M263.6,26.7c0,0.3-0.2,0.4-0.7,0.5c-0.6,0.1-1.7,0.3-3.1,0.6
				c-0.3,0.1-0.6-0.1-1.1-0.3c-0.1-0.1-0.1-0.1,0-0.2l2.4-0.6l0.6-0.2l0.2-0.2c0.2-0.3,0.6-0.3,1.4,0
				C263.4,26.4,263.6,26.5,263.6,26.7z"/>
		</g>
	</g>
	<path class="st0" d="M67.9,65.3c-0.1-0.1-0.2-0.3-0.3-0.5c-0.1-0.1-0.4-0.2-0.6-0.1c-0.4,0.1-0.7,0.6-1,1.3c-0.4,0.9-0.6,2.1-0.6,3
		c0.1,0.7,0.3,1.3,0.4,1.7c0.1,0.3,0.1,0.5,0.3,0.8c0.3,0.4,0.8,0.8,1.3,1.1c0.5,0.3,1,0.4,1.4,0.5c0.3,0.1,0.6,0.3,1,0.4
		c0.7,0.2,2.1,0.1,3.1,0c0.9-0.1,1.7-0.3,2.5-0.6c0.8-0.3,1.6-0.7,1.9-1.3c0.3-0.5,0.3-1,0.2-1.6c-0.2-0.7-0.5-1.4-0.7-2
		c-0.2-0.4-0.3-0.8-0.3-1.2c0-0.3,0.1-0.7,0.4-0.8c0.3-0.2,1,0,1.6,0c0.7,0,1.3-0.1,1.7,0c0.2,0,0.2,0.1,0.4,0.2
		c0.3,0.1,1,0.1,1.6,0c0.5,0,0.8-0.1,1,0.1c0.2,0.2,0.1,0.7,0.2,1.2c0,0.7,0.2,1.5,0.5,2.1c0.2,0.5,0.5,0.8,0.9,1
		c0.4,0.1,0.8,0.1,1.2,0c0.5-0.2,1-0.5,1.6-0.9c0.7-0.5,1.4-1,2.1-1.6c0.6-0.5,1-1,1.4-1.3c0.2-0.1,0.4-0.2,0.6-0.3
		c0.2-0.2,0.3-0.5,0.5-0.7c0.2-0.1,0.4-0.2,0.5-0.1c0.2,0.2,0.1,0.6,0.1,1.1c0,0.6,0.1,1.3,0.3,1.7c0.2,0.4,0.5,0.6,0.8,0.9
		c0.3,0.3,0.5,0.6,0.8,0.6c0.3,0,0.6-0.3,0.9-0.6c0.3-0.3,0.5-0.6,0.7-0.9c0.2-0.3,0.3-0.6,0.5-0.8c0.2-0.2,0.3-0.5,0.6-0.5
		c0.2-0.1,0.5-0.1,0.6-0.1c0.2-0.1,0.3-0.3,0.6-0.4c0.3-0.1,0.8,0,1.1,0.2c0.3,0.2,0.4,0.5,0.6,1c0.2,0.7,0.4,1.7,0.6,2.1
		c0.1,0.2,0.2,0.2,0.3,0.3c0.1,0.1,0,0.3,0.1,0.5c0.1,0.3,0.6,0.8,0.8,0.8c0.2,0,0.4-0.2,0.5-0.2c0.1-0.1,0.3,0,0.5,0.1
		c0.2,0.1,0.4,0.2,0.5,0.2c0.2,0,0.3-0.3,0.4-0.4c0.1-0.1,0.1-0.2,0.1-0.3c0-0.2-0.2-0.5-0.4-0.6c-0.2-0.1-0.3-0.1-0.5-0.1
		c-0.1,0-0.2,0.2-0.3,0.2c-0.1,0-0.2-0.1-0.3-0.3c-0.1-0.3-0.1-0.6-0.2-1c-0.1-0.4-0.2-0.8-0.4-1.1c-0.1-0.1-0.1-0.2-0.2-0.3
		c0-0.2,0-0.4-0.1-0.7c-0.1-0.4-0.5-0.8-0.7-1c-0.2-0.1-0.3-0.1-0.5-0.2c-0.3-0.1-0.6-0.4-1-0.6C99.4,65.1,99,65,98.5,65
		c-0.6,0.1-1.4,0.4-2,0.8c-0.5,0.3-0.9,0.5-1,0.8c0,0.1,0,0.2,0,0.2c-0.1,0.1-0.2,0.1-0.3,0c-0.1-0.1-0.1-0.2-0.1-0.4
		c0-0.2,0-0.3,0-0.5c-0.1-0.3-0.5-0.9-0.8-1.2c-0.2-0.2-0.4-0.4-0.6-0.4c-0.2,0-0.4,0.1-0.5,0c-0.1,0-0.1-0.1-0.2-0.1
		c-0.1-0.1-0.3-0.1-0.5-0.2c-0.1,0-0.1,0-0.2-0.1c-0.1,0-0.1-0.1-0.3-0.1c-0.2-0.1-0.6,0-0.9,0.1c-0.5,0.2-0.9,0.5-1.5,0.9
		c-0.6,0.5-1.3,1.1-1.5,1.4c-0.1,0.1-0.1,0.2-0.2,0.3c-0.1,0.1-0.2,0.1-0.4,0.2c-0.2,0.1-0.5,0.4-0.7,0.7c-0.2,0.3-0.5,0.6-0.6,0.6
		c0,0,0,0,0,0c0-0.1,0-0.2-0.1-0.4c0-0.1-0.1-0.1-0.1-0.2c0-0.1-0.1-0.2-0.1-0.5c0-0.3,0-0.9,0-1.2c0-0.3,0-0.4-0.1-0.6
		c-0.1-0.2-0.2-0.5-0.5-0.6c-0.3-0.2-0.8-0.2-1-0.2c-0.2,0-0.3,0-0.4-0.1c-0.2-0.1-0.4-0.3-0.5-0.3c-0.1,0-0.2,0.2-0.3,0.2
		C83.1,64,83.1,64,83,64c-0.1,0-0.2,0.1-0.3,0.1c-0.1,0-0.2,0-0.3,0c-0.1,0-0.3,0.2-0.4,0.2c-0.2,0.1-0.6,0-1,0
		c-0.5,0-1.1,0.1-1.5-0.1c-0.3-0.2-0.4-0.5-0.6-0.6c-0.2-0.1-0.6,0.1-0.9,0.2c-0.4,0.1-0.9,0-1.2-0.1c-0.2-0.1-0.3-0.2-0.4-0.1
		c-0.1,0-0.2,0.1-0.3,0.2c-0.1,0-0.4-0.1-0.5-0.2c-0.1,0-0.2,0-0.3,0c-0.1,0.1-0.1,0.2-0.3,0.2c-0.2,0.1-0.5-0.1-0.9,0
		c-0.5,0.1-0.9,0.7-1.2,1.2c-0.2,0.5-0.2,0.9-0.2,1.5c0,0.7,0,1.6,0.2,2.2c0.1,0.5,0.3,0.8,0.5,1.1c0.2,0.3,0.6,0.7,0.7,1
		c0.1,0.2,0.2,0.5,0,0.6c-0.2,0.2-0.8,0.1-1.3,0.2c-0.4,0-0.7,0.1-0.9,0.1c-0.2,0-0.3-0.1-0.5-0.1c-0.2,0-0.4,0-0.7,0
		c-0.4,0-1-0.1-1.3-0.2c-0.2-0.1-0.3-0.1-0.4-0.1c-0.1,0-0.3,0-0.5-0.1c-0.3-0.1-0.6-0.5-0.7-0.7c-0.1-0.2,0-0.4,0.2-0.6
		c0.2-0.3,0.6-0.6,0.7-0.8c0.1-0.2,0.1-0.3,0.1-0.5c0.1-0.3,0.4-0.6,0.5-0.8c0.1-0.2,0.2-0.2,0.3-0.4c0.2-0.3,0.6-0.8,0.6-1.2
		c0-0.3-0.3-0.5-0.5-0.6c-0.2-0.1-0.5,0-0.7-0.1c-0.2,0-0.4-0.1-0.5-0.2c-0.1-0.1-0.2-0.1-0.4-0.2C68.1,65.3,68,65.3,67.9,65.3z"/>
	<path class="st0" d="M128.8,72.6c-0.2-0.3-0.3-0.6-0.5-0.8c-0.2-0.3-0.5-0.5-0.7-0.7c-0.1-0.2-0.1-0.3-0.1-0.4
		c0.1-0.2,0.4-0.2,0.7-0.4c0.4-0.2,0.8-0.4,0.8-0.6c0-0.2-0.1-0.3-0.3-0.5c-0.1-0.2-0.2-0.4-0.3-0.4c-0.1-0.1-0.3,0-0.5,0.1
		c-0.3,0.2-0.7,0.5-1.1,0.5c-0.3,0-0.6-0.2-0.8-0.5c-0.2-0.3-0.3-0.7-0.2-1c0.1-0.3,0.4-0.4,0.7-0.7c0.6-0.4,1.5-1.2,1.9-2.2
		c0.4-1,0.4-2.3-0.3-3c-0.7-0.7-2-1-2.9-0.7c-0.8,0.2-1.2,0.8-1.7,1.4c-0.7,0.7-1.5,1.5-2.1,2.1c-0.4,0.4-0.7,0.7-0.8,1.1
		c-0.1,0.3-0.1,0.8,0,1.1c0.2,0.3,0.5,0.5,0.8,0.7c0.3,0.2,0.6,0.5,0.5,0.7c-0.1,0.4-0.9,0.9-1.4,1.5c-0.5,0.6-0.8,1.4-0.8,2
		c0,0.6,0.2,1.1,0.5,1.3c0.4,0.3,0.9,0.4,1.4,0.3c0.7-0.1,1.4-0.6,2-0.9c0.5-0.2,0.8-0.3,1.2-0.2c0.5,0.1,1,0.6,1.4,1
		c0.5,0.4,0.9,0.8,1.6,0.9c0.6,0.1,1.2-0.1,1.3-0.4C129.5,73.4,129.1,73,128.8,72.6z M122.5,71.3c-0.6,0.2-1.1,0.6-1.3,0.5
		c-0.1-0.1-0.1-0.3-0.1-0.5c0.1-0.3,0.5-0.6,0.8-0.9c0.2-0.3,0.4-0.6,0.6-0.7c0.2-0.1,0.4,0,0.7,0.1c0.3,0.2,0.6,0.6,0.5,0.8
		C123.7,70.9,123.1,71,122.5,71.3z M124.5,66.3c-0.3,0.2-0.5,0.3-0.6,0.2c-0.2,0-0.4-0.2-0.4-0.4c-0.1-0.2,0-0.5,0.1-0.8
		c0.2-0.5,0.4-1,0.7-1.6c0.3-0.5,0.6-1,1.1-1.3c0.3-0.2,0.8-0.3,1.1-0.1c0.3,0.1,0.5,0.4,0.5,0.7c0,0.5-0.3,1.2-0.8,1.8
		C125.6,65.5,125,66,124.5,66.3z"/>
	<path class="st0" d="M147.5,67c-0.2,0.1-0.4,0.3-0.7,0.4c-0.3,0.1-0.5,0.1-0.9-0.2c-0.6-0.4-1.5-1.2-2-1.7
		c-0.3-0.3-0.5-0.5-0.5-0.7c0-0.3,0.2-0.7,0.4-1c0.3-0.3,0.6-0.3,1.1-0.3c0.8,0,2.1,0.2,3.3,0.4c1.5,0.2,3,0.4,4.9,0.6
		c2.4,0.2,5.5,0.4,8.4,0.3c3.1-0.1,6-0.5,9.3-0.7c3.5-0.1,7.3,0,10.6,0c3-0.1,5.7-0.3,8.4-0.3c2.4,0,4.9,0.1,6.8,0.1
		c1.7,0,3,0,4.9-0.1c2.5-0.1,6.1-0.2,8.3-0.1c1.4,0,2.2,0.1,3.1,0.4c0.8,0.3,1.6,0.7,2.2,1.1c0.4,0.3,0.7,0.5,0.9,0.8
		c0.1,0.2,0.1,0.4,0,0.6c-0.1,0.2-0.5,0.4-0.8,0.5c-0.5,0.2-1,0.4-1.5,0.7c-0.4,0.3-0.8,0.6-1.2,0.7c-0.3,0.1-0.7,0-1,0.1
		c-0.3,0-0.6,0.1-0.8,0.3c-0.3,0.1-0.5,0.2-0.8,0.2c-0.4,0-1-1.1-1.6-1.3c-0.9-0.3-2.3-0.5-3.5-0.7c-1.3-0.2-2.5-0.3-3.7-0.3
		c-1.3,0-2.7,0.1-4.2,0.1c-1.6,0.1-3.2,0.1-4.9,0.2c-1.4,0.1-2.8,0.2-3.7,0.3c-0.5,0.1-0.8,0.1-1.3,0.2c-0.5,0-1,0.1-1.3,0.5
		c-0.2,0.3-0.9,0.5-1.2,0.9c-0.4,0.5-0.6,1.5-0.7,2.4c-0.2,1-0.4,1.9-0.4,3.2c0,1.8,0.2,4.5,0.4,6.3c0.1,1.1,0.2,1.9,0.4,2.7
		c0.2,0.7,0.7,1.5,1,2c0.2,0.3,0.4,0.4,0.6,0.5c0.2,0,0.4,0,0.5,0.2c0.1,0.2,0.1,0.7,0.2,1c0.1,0.3,0.3,0.5,0.5,0.6
		c0.2,0.1,0.3,0.1,0.5,0.2c0.2,0.1,0.4,0.4,0.5,0.7c0.1,0.2,0.1,0.3,0.2,0.4c0.1,0.1,0.2,0.1,0.3,0.1c0.1,0.1,0.2,0.2,0.2,0.4
		c0,0.1-0.1,0.2-0.1,0.3c0,0.1,0.1,0.2,0.1,0.4c0.1,0.2,0.1,0.6,0,0.8c-0.1,0.1-0.2,0.1-0.2,0.1c-0.1,0.1-0.2,0.5-0.4,0.6
		c-0.1,0.1-0.3,0.1-0.5,0c-0.2-0.1-0.3-0.2-0.4-0.3c-0.1-0.1-0.1-0.2-0.2-0.2c-0.1,0-0.2,0.1-0.3,0.1c-0.1,0-0.1,0-0.1,0
		c-0.1,0-0.1,0.2-0.2,0.3c-0.1,0.1-0.2,0.1-0.4,0.1c-0.2-0.1-0.5-0.3-0.8-0.5c-0.2-0.2-0.3-0.5-0.5-0.6c-0.1-0.1-0.2,0-0.3-0.1
		c-0.2-0.1-0.3-0.6-0.4-1c-0.1-0.5,0-0.9-0.2-1.3c-0.2-0.4-0.6-0.8-0.6-1.1c0-0.2,0.2-0.4,0.4-0.6c0.1-0.3,0.1-0.6,0.1-1
		c-0.2-0.8-0.7-2-1-3.6c-0.5-2.4-0.5-5.8-0.4-8.2c0.1-1.6,0.2-2.8,0.4-3.5c0.1-0.3,0.2-0.5,0.1-0.6c0-0.1-0.2-0.2-0.3-0.4
		c-0.1-0.2-0.1-0.5,0-0.8c0.2-0.4,0.7-0.8,0.8-1.1c0-0.1,0-0.2-0.1-0.3c-0.2-0.1-0.5,0-1.1,0c-1.3,0.1-3.7-0.2-5.9-0.3
		c-2.2-0.1-4,0-6.1,0.1c-2.4,0.1-5.2,0.2-8.1,0.4c-2.9,0.1-5.8,0.3-8.2,0.2c-1.8-0.1-3.3-0.3-4.6-0.3c-0.7,0-1.3,0.1-1.6,0
		C147.6,67,147.6,67,147.5,67z"/>
	<path class="st0" d="M272.4,67.5c-0.5-0.1-0.6,0.1-0.6,0.4c0,0.5,0.5,1.1,0.6,1.8c0.1,0.9-0.4,2.1-0.9,3.3c-0.9,2-2.2,4.3-3.4,5.9
		c-1,1.3-2,2.2-3,3.2c-0.7,0.7-1.4,1.6-1.8,1.5c-0.3-0.1-0.4-0.6-0.5-1.1c-0.1-0.6-0.2-1.2-0.1-1.7c0.1-0.3,0.3-0.5,0.3-0.6
		c0-0.1-0.1-0.2-0.2-0.3c-0.1-0.2,0-0.6,0.2-0.8c0.1-0.2,0.3-0.3,0.3-0.5c0-0.3-0.4-0.8-0.6-1.1c-0.1-0.2-0.1-0.4-0.1-0.6
		c0-0.4-0.1-1,0-1.5c0.1-0.4,0.3-0.7,0.3-1c0-0.3-0.2-0.6-0.4-0.8c-0.2-0.3-0.5-0.6-0.7-0.8c-0.2-0.2-0.4-0.4-0.7-0.3
		c-0.4,0.1-0.9,0.6-1.1,1c-0.1,0.3-0.1,0.6-0.1,0.9c-0.1,0.2-0.2,0.4-0.3,0.7c-0.1,0.4,0,0.9,0,1.5c0,0.5,0,1.1,0.1,1.6
		c0.1,0.5,0.2,1,0.3,1.4c0,0.3-0.1,0.6-0.3,0.9c-0.2,0.2-0.5,0.4-0.8,0.5c-0.3,0.1-0.6,0.2-0.8,0.1c-0.3-0.1-0.5-0.4-0.6-0.7
		c-0.1-0.3-0.1-0.8-0.1-1c0-0.1,0-0.2,0.1-0.3c0.2-0.2,0.7-0.6,1-0.9c0.1-0.1,0.2-0.2,0.2-0.3c0-0.1,0-0.2,0.1-0.3
		c0.1-0.1,0.4-0.3,0.4-0.5c0.1-0.2-0.2-0.6-0.3-0.7c-0.1,0-0.2,0-0.3,0c-0.1,0-0.1-0.2-0.3-0.2c-0.2-0.1-0.5,0-0.7,0.1
		c-0.1,0.1-0.1,0.1-0.2,0.2c-0.1,0-0.2,0-0.3,0c-0.1,0-0.1-0.1-0.2-0.1c-0.1,0-0.2,0.1-0.3,0.2c-0.1,0.1-0.1,0.3-0.2,0.3
		c-0.1,0.1-0.3,0.1-0.3,0.2c-0.1,0.1-0.1,0.2-0.1,0.3c-0.1,0.3-0.5,0.6-1,0.9c-0.6,0.4-1.2,1-1.7,1.1c-0.3,0.1-0.5,0-0.6,0.1
		c-0.1,0.1-0.1,0.3-0.2,0.5c-0.1,0.1-0.3,0.2-0.5,0.3c-0.2,0.1-0.5,0.4-0.8,0.5c-0.3,0.1-0.7,0.1-0.9,0c-0.1,0-0.1-0.1-0.2-0.1
		c-0.1,0-0.2,0.1-0.4,0.1c-0.2,0-0.4-0.1-0.5-0.2c-0.1-0.1-0.2-0.2-0.2-0.3c0-0.1,0.2-0.2,0.2-0.3c0.1-0.1,0-0.2,0-0.3
		c0-0.1,0-0.2,0-0.3c0.1-0.1,0.2-0.2,0.2-0.3c0.1-0.2,0-0.5,0-0.7c0-0.1,0-0.2,0.1-0.2c0-0.1,0-0.1,0-0.2c0-0.1-0.1-0.3-0.2-0.4
		c-0.1,0-0.2,0-0.3,0c-0.1-0.1-0.2-0.2-0.3-0.3c-0.1,0-0.1,0.1-0.2,0.1c-0.1,0-0.2,0-0.3-0.1c-0.1-0.1-0.1-0.1-0.2-0.2
		c-0.1,0-0.2,0-0.3,0.1c-0.2,0.1-0.5,0.3-0.6,0.5c0,0.1,0,0.3,0,0.4c0,0.1-0.2,0-0.2,0c-0.1-0.1-0.2-0.1-0.2-0.2
		c-0.1,0-0.2,0-0.3,0.1c-0.1,0.1-0.3,0.2-0.3,0.3c-0.1,0.2,0,0.3,0,0.5c0,0.1,0,0.3,0,0.3c0,0,0.1,0,0.1,0c0,0-0.1,0.1-0.1,0.2
		c-0.1,0.2,0.1,0.6,0.1,1c0,0.4-0.2,0.8-0.6,1.2c-0.6,0.6-1.4,1.2-2.1,1.7c-0.6,0.5-1.2,1-1.8,1.3c-0.5,0.3-1.1,0.4-1.5,0.5
		c-0.2,0-0.4,0.1-0.5,0c-0.1-0.2,0.1-0.7,0.2-1.3c0.2-1,0.3-2.3,0.3-3.1c0-0.4-0.1-0.7,0-1c0-0.2,0.1-0.4,0.2-0.6
		c0.1-0.4,0.1-0.9,0.2-1.1c0.1-0.2,0.2-0.2,0.4-0.4c0.4-0.4,1.2-1.4,2-2.3c1-1.1,2.1-2,3-2.8c0.8-0.7,1.5-1.3,2.2-2
		c0.6-0.6,1.3-1.4,1.5-1.8c0.1-0.3,0.1-0.4,0.2-0.7c0.1-0.3,0.2-0.7,0.2-1.1c0-0.4-0.3-1-0.6-1c-0.2,0-0.5,0.2-0.7,0.2
		c-0.3,0-0.5-0.3-0.8-0.4c-0.3-0.1-0.7,0.1-1,0.1c-0.4,0.1-0.7,0-1.2,0.2c-0.8,0.2-2,1-2.7,2c-0.6,0.9-0.9,1.9-1.3,2.3
		c-0.2,0.2-0.4,0.3-0.5,0.5c-0.1,0.2-0.1,0.5-0.2,0.7c0,0.1-0.1,0.2-0.2,0.3c-0.2,0.4-0.6,1.7-0.8,2.3c-0.1,0.2-0.2,0.3-0.2,0.5
		c0,0.1,0,0.3-0.1,0.4c-0.1,0.1-0.2,0.1-0.2,0.2c-0.1,0.1,0,0.3,0,0.5c0,0.2-0.1,0.4-0.3,0.7c-0.3,0.4-0.7,1-1,1.2
		c-0.1,0.1-0.2,0.1-0.3,0.2c-0.2,0.2-0.3,0.5-0.6,0.8c-0.2,0.3-0.5,0.6-0.8,0.6c-0.1,0-0.2,0-0.3,0c-0.1,0-0.1,0.1-0.3,0.2
		c-0.2,0.1-0.5,0.2-0.8,0.2c-0.3,0-0.7-0.1-0.9-0.3c-0.1-0.1-0.2-0.2-0.3-0.2c-0.1-0.1-0.2-0.1-0.3-0.1c-0.1,0-0.2,0.1-0.3,0.1
		c-0.1,0-0.3-0.1-0.4-0.2c-0.2-0.1-0.4-0.2-0.6-0.3c-0.2-0.1-0.4-0.1-0.6-0.1c-0.3,0.1-0.7,0.4-0.9,0.4c-0.1,0-0.2,0-0.3,0
		c-0.1,0-0.1,0.2-0.2,0.4c0,0.3-0.1,0.8-0.2,1.1c-0.1,0.1-0.1,0.2-0.2,0.3c-0.1,0.2-0.1,0.4-0.1,0.8c0,0.5-0.2,1.3-0.4,1.8
		c-0.2,0.4-0.5,0.6-0.6,0.8c-0.1,0.1-0.1,0.1-0.2,0.1c-0.2,0.1-0.7,0-1,0c-0.2,0-0.3,0-0.3-0.1c-0.1-0.1,0-0.5,0-0.7
		c0-0.1-0.1-0.2-0.2-0.3c0-0.1,0-0.3,0-0.6c0-0.5-0.3-1.4-0.4-1.8c-0.1-0.2-0.1-0.4-0.1-0.6c0-0.2,0-0.5-0.1-0.8
		c-0.1-0.2-0.2-0.4-0.3-0.5c-0.1-0.1-0.1-0.2-0.2-0.3c-0.1-0.1-0.2-0.3-0.2-0.4c0-0.1,0-0.1,0-0.2c0.1-0.2,0.5-0.7,0.9-1.2
		c0.8-1,1.9-2.3,2.7-3.2c0.6-0.6,1-1.1,1.2-1.5c0.1-0.2,0.1-0.3,0.2-0.5c0.1-0.2,0.2-0.3,0.4-0.5c0.2-0.3,0.5-0.7,0.7-1.1
		c0.1-0.3,0-0.6,0-0.8c0-0.1,0-0.2,0.1-0.3c0.1-0.2,0.4-0.6,0.6-0.9c0.2-0.3,0.2-0.7,0.3-0.9c0-0.1,0.1-0.1,0.1-0.1
		c0.1-0.1,0.3-0.2,0.3-0.3c0-0.2-0.2-0.4-0.4-0.6c-0.3-0.2-0.6-0.5-0.9-0.5c-0.3,0-0.7,0.1-0.9,0.2c-0.2,0-0.3,0-0.6-0.1
		c-0.4-0.1-1.1-0.2-1.4-0.1c-0.2,0.1-0.3,0.2-0.4,0.3c-0.2,0.1-0.5,0.1-0.9,0.2c-0.6,0.1-1.3,0.6-1.8,1c-0.5,0.3-0.8,0.7-1,0.9
		c-0.1,0.2-0.2,0.3-0.3,0.5c-0.1,0.2-0.4,0.5-0.6,0.8c-0.1,0.3-0.1,0.6-0.2,0.8c-0.1,0.2-0.2,0.3-0.3,0.4c-0.1,0.1-0.2,0.2-0.2,0.2
		c0,0.1,0.1,0.2,0.1,0.2c0,0.1,0,0.1-0.1,0.2c-0.1,0.2-0.2,0.5-0.1,0.8c0,0.1,0.1,0.2,0.2,0.3c0,0.1-0.1,0.3-0.1,0.6
		c0,0.5,0.3,1.4,0.4,2c0.1,0.4,0.1,0.7,0.2,1c0,0.2,0.1,0.3,0.1,0.4c0,0.1,0.1,0.1,0.1,0.3c0,0.3-0.5,0.8-0.9,1.3
		c-0.6,0.6-1.2,1.1-2,1.8c-0.8,0.8-1.7,1.9-2.3,2.1c-0.2,0.1-0.4,0-0.5,0.1c-0.1,0.1-0.1,0.3-0.1,0.4c-0.1,0.2-0.3,0.2-0.5,0.4
		c-0.4,0.2-0.9,0.6-1.2,0.7c-0.1,0-0.2,0-0.2,0.1c0,0,0,0.2-0.1,0.3c-0.1,0.3-0.6,0.7-0.9,0.8c-0.2,0-0.3,0-0.3,0c0,0,0,0.1-0.1,0.2
		c-0.1,0.2-0.6,0.6-0.8,0.7c-0.1,0-0.1,0-0.1,0c-0.1,0-0.2,0.2-0.3,0.3c-0.2,0.2-0.5,0.3-0.8,0.5c-0.3,0.1-0.7,0.2-1,0.2
		c-0.3,0-0.5-0.2-0.7-0.2c-0.1,0-0.2,0-0.3,0c0-0.1,0-0.3,0-0.4c0-0.1-0.1-0.2-0.1-0.3c0-0.3,0-0.9,0.1-1.2c0.1-0.2,0.1-0.3,0.2-0.4
		c0-0.1,0-0.1,0.1-0.2c0.1-0.2,0.3-0.5,0.5-0.7c0.1-0.1,0.2-0.2,0.3-0.3c0-0.2-0.1-0.5-0.2-0.7c-0.1-0.1-0.1-0.2-0.1-0.3
		c0-0.2,0-0.4,0-0.6c0-0.1-0.1-0.1-0.2-0.2c-0.1,0-0.3,0-0.4,0c0,0-0.1,0-0.1,0c-0.1,0-0.1-0.1-0.2-0.2c-0.1,0-0.1-0.1-0.2,0
		c0,0-0.1,0-0.2,0.1c-0.1,0-0.2,0-0.2,0c0,0-0.1-0.1-0.1-0.1c0-0.1-0.1-0.1-0.2,0c-0.2,0.1-0.6,0.5-0.8,0.8c-0.1,0.2,0,0.3-0.1,0.4
		c-0.1,0.1-0.2,0.1-0.3,0.2c-0.1,0.1-0.1,0.2-0.1,0.3c0,0.1-0.1,0.2-0.2,0.3c-0.1,0.2-0.3,0.3-0.4,0.5c-0.1,0.1-0.1,0.3-0.1,0.4
		c0,0.1,0,0.1-0.1,0.1c-0.1,0-0.2,0-0.4,0.1c-0.2,0.1-0.4,0.3-0.6,0.4c-0.1,0.1-0.2,0.2-0.3,0.3c0,0.1,0,0.1-0.1,0.2
		c-0.2,0.2-0.6,0.4-0.8,0.3c-0.1,0-0.1-0.1-0.1-0.1c-0.1-0.1-0.3-0.1-0.3,0c0,0.1,0,0.2,0,0.3c0,0.1-0.2,0.2-0.3,0.2
		c-0.2,0-0.3-0.1-0.5-0.2c-0.2,0-0.3,0-0.5,0.1c-0.1,0.1-0.1,0.2-0.2,0.3c-0.1,0.1-0.3,0.2-0.4,0.3c-0.1,0-0.2,0.1-0.3,0.1
		c0,0-0.1,0-0.1,0c0,0-0.1,0.1-0.1,0.1c-0.1,0.1-0.3,0-0.5,0.1c-0.2,0-0.3,0.1-0.4,0.1c-0.1,0-0.2,0.1-0.3,0
		c-0.2-0.1-0.4-0.5-0.5-0.9c-0.1-0.5-0.1-0.9-0.2-1.3c0-0.2,0-0.4,0-0.5c0-0.1,0.1-0.2,0.2-0.2c0-0.1,0-0.2,0-0.3
		c0-0.2,0.2-0.6,0.4-1c0.3-0.5,0.6-1,0.9-1.2c0.2-0.2,0.5-0.2,0.7-0.2c0.3,0,0.6,0,0.8,0.2c0.1,0.2,0.2,0.4,0.3,0.5
		c0.1,0.1,0.3,0,0.5,0.1c0.2,0.1,0.3,0.4,0.5,0.5c0.2,0.1,0.4,0,0.5,0.1c0.1,0.1,0.1,0.2,0.3,0.3c0.1,0,0.4-0.1,0.4-0.2
		c0-0.1,0-0.2,0.1-0.2c0.1-0.1,0.2-0.1,0.3-0.1c0.1-0.1,0-0.2,0.1-0.4c0.1-0.1,0.3-0.2,0.5-0.4c0.1-0.2,0.1-0.4,0.1-0.5
		c0-0.1,0-0.1,0-0.2c0,0,0.1-0.1,0.1-0.1c0-0.1-0.1-0.3,0-0.3c0,0,0.1,0,0.1,0c0.1,0,0.1,0,0.2-0.1c0-0.1,0-0.1,0-0.2
		c0-0.1,0.1-0.2,0.2-0.3c0.1,0,0.1-0.1,0.1-0.1c0-0.2-0.3-0.7-0.8-1c-0.7-0.4-1.9-0.2-2.6-0.1c-0.5,0-0.8,0-1.2,0.2
		c-0.8,0.4-1.9,1.7-2.7,2.8c-0.7,1.1-1.1,2.1-1,3.2c0.1,1.2,0.6,2.5,1.2,3.3c0.4,0.6,0.9,1,1.4,1c0.7,0.1,1.4-0.4,2.4-0.9
		c1.3-0.7,2.9-1.6,3.7-2.1c0.3-0.2,0.5-0.3,0.7-0.3c0.1,0,0.3,0.2,0.3,0.4c0.1,0.4,0.2,1.1,0.6,1.6c0.5,0.6,1.5,1,2.4,1
		c0.9,0,1.7-0.3,2.7-1c1.6-1,3.8-2.8,5-4c0.7-0.7,1.1-1.1,1.5-1.5c0.4-0.4,1-0.8,1.6-1.3c0.6-0.5,1.3-1.1,1.6-1.1
		c0.1,0,0.1,0,0.2,0.1c0.1,0.1,0.2,0.3,0.2,0.5c0.1,0.5,0.2,1.4,0.4,2.2c0.2,0.7,0.4,1.4,0.5,1.8c0,0.2,0,0.4,0,0.6
		c0,0.1,0.2,0.3,0.3,0.4c0.1,0.2,0.3,0.6,0.3,0.9c0.1,0.2,0.1,0.3,0.2,0.5c0.1,0.2,0.4,0.4,0.6,0.4c0.2,0,0.4-0.2,0.7-0.3
		c0.4-0.1,0.8,0.1,1,0c0.1-0.1,0.1-0.2,0.2-0.2c0.1,0,0.2,0.1,0.4,0.1c0.2,0,0.4-0.1,0.6-0.4c0.4-0.5,0.8-1.7,1-2.7
		c0.2-0.8,0.3-1.6,0.6-1.8c0.2-0.2,0.5-0.1,0.9,0.1c0.6,0.2,1.3,0.4,2.1,0.3c0.9-0.1,1.7-0.7,2.3-1.3c0.3-0.3,0.6-0.6,0.7-0.6
		c0.1,0,0.2,0.3,0.2,0.7c0,0.7-0.1,1.8-0.2,2.7c-0.1,0.9-0.1,1.7,0,2.5c0.1,0.6,0.2,1.2,0.5,1.5c0.2,0.2,0.6,0.3,0.8,0.5
		c0.1,0.1,0.2,0.3,0.3,0.3c0.2,0,0.5-0.4,0.8-0.7c0.5-0.4,1.1-0.7,1.6-0.9c0.5-0.2,0.9-0.4,1.5-0.7c0.7-0.4,1.5-1,1.9-1.5
		c0.3-0.4,0.4-0.7,0.6-1.1c0.2-0.4,0.6-0.7,0.9-0.9c0.2-0.1,0.3-0.2,0.4-0.1c0.1,0,0.3,0.2,0.5,0.3c0.3,0.1,0.7,0.1,1,0.3
		c0.3,0.1,0.6,0.4,0.8,0.6c0.2,0.1,0.5,0.2,0.7,0.2c0.3,0,0.5-0.1,0.7-0.3c0.1-0.1,0.2-0.3,0.4-0.4c0.3-0.2,0.7-0.3,1-0.4
		c0.2-0.1,0.3-0.2,0.4-0.3c0.1-0.1,0.2-0.4,0.4-0.5c0.2-0.2,0.7-0.4,0.9-0.6c0.2-0.1,0.3-0.3,0.4-0.4c0.2-0.2,0.5-0.3,0.7-0.3
		c0.1,0,0.2,0.1,0.2,0.3c0,0.2,0,0.4,0.1,0.7c0.1,0.4,0.5,0.8,1,1.1c0.5,0.3,1.2,0.5,1.8,0.5c0.6,0,1.1-0.2,1.5-0.3
		c0.2-0.1,0.3-0.2,0.4-0.1c0,0,0,0.1,0,0.3c0,0.3,0.2,0.7,0.2,1.2c0.1,0.5,0.1,1,0.1,1.5c0,0.4-0.1,0.8-0.1,1c0,0.1,0,0.1-0.1,0.2
		c-0.2,0.3-1,1.4-1.7,2.4c-0.7,1-1.3,1.9-1.7,2.6c-0.2,0.4-0.4,0.6-0.6,1c-0.1,0.4-0.2,0.8-0.3,1.3c-0.1,0.5-0.2,1.1-0.2,1.6
		c0,0.4,0,0.7,0.1,1c0.1,0.2,0.3,0.4,0.5,0.6c0.2,0.2,0.2,0.5,0.4,0.7c0.2,0.2,0.5,0.3,0.8,0.3c0.3,0,0.7-0.1,1-0.2
		c0.3-0.1,0.5-0.2,0.7-0.3c0.2-0.1,0.3-0.2,0.5-0.5c0.2-0.2,0.3-0.5,0.3-0.6c0-0.1-0.1-0.1-0.1-0.1c0-0.1,0.1-0.2,0.1-0.3
		c0.1-0.1,0.1-0.2,0.1-0.3c0-0.1,0-0.3,0-0.4c0-0.3,0.2-0.7,0.4-1.2c0.3-0.7,0.7-1.6,1-2.4c0.2-0.6,0.4-1,0.5-1.4
		c0-0.3,0-0.5,0.1-0.6c0-0.1,0.1-0.2,0.1-0.4c0.1-0.2,0.1-0.6,0-1c0-0.4-0.1-0.9-0.1-1.1c0-0.2,0.1-0.2,0.3-0.4
		c0.4-0.4,1.4-1.6,2.4-2.6c1.6-1.7,3.6-3.8,4.9-6.3c1.4-2.8,2.1-5,2.3-7.4C273.1,68.5,272.8,67.6,272.4,67.5z M243.3,72.5
		c0.1-0.3,0.3-0.6,0.5-0.8c0.1-0.1,0.1-0.1,0.1-0.1c0-0.1,0-0.3,0-0.4c0.1-0.2,0.4-0.5,0.6-0.6c0.2-0.1,0.3-0.1,0.3-0.2
		c0.1-0.1,0.1-0.2,0.1-0.3c0.1-0.2,0.3-0.5,0.5-0.7c0.2-0.2,0.4-0.3,0.5-0.3c0.1,0,0.2,0,0.2-0.1c0,0,0.1-0.1,0.1-0.2
		c0.1-0.1,0.2-0.2,0.3-0.2c0.1,0,0.1,0,0.2,0c0.1,0,0.2-0.2,0.3-0.3c0.1-0.1,0.1-0.1,0.2-0.2c0.1,0,0.4-0.1,0.6,0
		c0.1,0,0.2,0.1,0.2,0.1c0,0.1,0,0.1-0.1,0.2c-0.1,0.2-0.4,0.4-0.5,0.5c0,0.1-0.1,0.1-0.1,0.2c0,0.1,0,0.1-0.1,0.1
		c-0.1,0-0.2,0-0.2,0c-0.1,0-0.1,0.1-0.1,0.3c-0.1,0.2-0.2,0.3-0.3,0.5c-0.1,0.1-0.2,0.2-0.3,0.2c-0.1,0-0.1,0-0.2,0.1
		c-0.1,0.1-0.1,0.2-0.1,0.3c0,0.1-0.1,0.1-0.1,0.1c-0.1,0.1-0.1,0.2-0.2,0.3c0,0.1-0.1,0.1-0.1,0.2c-0.1,0.1-0.3,0.2-0.4,0.3
		c-0.1,0.1-0.1,0.2-0.1,0.3c0,0.1-0.1,0.2-0.2,0.2c-0.1,0-0.2,0-0.3,0.1c-0.2,0.1-0.3,0.3-0.5,0.5c-0.2,0.2-0.3,0.4-0.4,0.5
		c-0.1,0.1-0.1,0.2-0.2,0.2c0,0-0.1,0-0.2,0c-0.1,0-0.1-0.1-0.1-0.2C243.2,72.9,243.2,72.7,243.3,72.5z M225.2,75.1
		c-0.1,0-0.2,0.1-0.2,0c0-0.1,0-0.2,0-0.4c0-0.3-0.1-0.7-0.1-1c-0.1-0.3-0.1-0.6-0.1-0.9c0-0.2,0-0.4,0.1-0.6c0-0.3,0.1-0.6,0.1-0.9
		c0-0.2,0-0.4,0-0.6c0-0.1,0.1-0.3,0.2-0.4c0.1-0.1,0.2-0.3,0.2-0.4c0-0.1-0.1-0.1,0-0.2c0-0.1,0.3-0.3,0.4-0.5
		c0.2-0.2,0.4-0.5,0.6-0.6c0.1-0.1,0.3-0.2,0.5-0.3c0.2-0.2,0.4-0.5,0.6-0.6c0.2-0.1,0.3-0.1,0.4-0.1c0.1,0,0.1-0.1,0.2-0.1
		c0.1-0.1,0.2-0.2,0.5-0.3c0.4-0.2,0.9-0.2,1.3-0.1c0.3,0.1,0.5,0.2,0.6,0.3c0.1,0,0.2,0,0.2,0.1c0.1,0,0.1,0.1,0.2,0.2
		c0,0.1,0,0.2-0.1,0.4c-0.1,0.2-0.3,0.5-0.4,0.7c-0.1,0.2-0.2,0.4-0.3,0.6c-0.2,0.4-0.6,1-1,1.5c-0.6,0.8-1.3,1.6-2,2.4
		C226.3,74.1,225.6,74.9,225.2,75.1z M260.4,92.5c-0.1,0.6-0.7,1.4-1,1.5c-0.3,0.1-0.1-0.3-0.2-0.6c-0.1-0.3,0.3-1.1,0.4-1.5
		c0.2-0.3,1.1-1.8,1.1-1.8s0.7-0.4,0.6-0.4C261.4,89.8,260.5,91.9,260.4,92.5z"/>
	<g>
		<g>
			<path class="st0" d="M89.2,89.8c0.7,0.3,1.3,0.6,1.5,0.9c0.5,0.5,0.8,1.1,0.8,1.8c0,0.7-0.3,1.4-0.9,2c-0.6,0.6-1.5,0.9-2.5,0.9
				c-0.5,0-0.9-0.1-1.4-0.2c-0.6-0.2-1.1-0.4-1.4-0.4c-0.4,0-0.8,0.1-1.2,0.4l-0.8-2.9l0.3-0.1c0.4,0.6,0.8,1.1,1.1,1.4
				c0.9,0.9,2,1.3,3.3,1.3c0.7,0,1.4-0.2,1.8-0.7c0.4-0.4,0.6-0.9,0.6-1.5c0-0.3-0.1-0.5-0.2-0.8c-0.2-0.2-0.4-0.5-0.7-0.6
				c-0.5-0.3-1.2-0.6-2.1-0.9c-0.7-0.2-1.3-0.4-1.7-0.5c-0.7-0.2-1.3-0.5-1.7-0.9c-0.4-0.4-0.5-0.8-0.5-1.4c0-0.7,0.3-1.3,0.8-1.8
				c0.6-0.6,1.5-0.9,2.7-0.9c0.6,0,1.2,0.1,1.8,0.4c0.3,0.1,0.7,0,1.2-0.2l0.8,2.7L90.6,88c-0.4-0.7-0.9-1.2-1.3-1.7
				c-0.6-0.6-1.3-0.9-2.2-0.9c-0.8,0-1.5,0.2-1.9,0.7c-0.4,0.4-0.5,0.8-0.5,1.2c0,0.4,0.1,0.7,0.4,0.9c0.3,0.3,0.8,0.5,1.5,0.7
				C87.6,89.3,88.6,89.6,89.2,89.8z"/>
			<path class="st0" d="M100.4,93.9c0,0.4,0.1,0.6,0.2,0.8c0.2,0.2,0.4,0.2,0.8,0.2h0.3v0.4h-0.2c-0.6,0-1.3,0.1-2.1,0.2v-1.6
				c-0.3,0.5-0.7,0.9-1.1,1.2c-0.4,0.3-0.9,0.4-1.5,0.4c-0.8,0-1.4-0.2-1.8-0.6c-0.4-0.4-0.6-1-0.6-1.7V90c0-0.4-0.1-0.6-0.2-0.8
				c-0.2-0.2-0.4-0.2-0.8-0.2h-0.3v-0.4h0.7c0.6,0,1.1-0.2,1.6-0.5v5c0,0.6,0.2,1,0.5,1.4c0.2,0.2,0.6,0.4,1,0.4
				c0.5,0,1-0.1,1.4-0.4c0.4-0.2,0.8-0.6,1.2-1.2V90c0-0.4-0.1-0.6-0.2-0.8c-0.2-0.2-0.4-0.2-0.8-0.2h-0.3v-0.4h0.7
				c0.6,0,1.1-0.2,1.6-0.5V93.9z"/>
			<path class="st0" d="M108.3,89.3c0.2-0.2,0.5-0.3,0.6-0.4c0.2-0.1,0.4-0.2,0.5-0.2c0.2,0,0.4,0.1,0.5,0.2
				c0.1,0.1,0.2,0.3,0.2,0.4c0,0.2,0,0.3-0.1,0.4c-0.1,0.1-0.2,0.1-0.4,0.1c-0.2,0-0.3-0.1-0.5-0.2c-0.1-0.1-0.3-0.1-0.6,0.1
				c0.3,0.3,0.4,0.7,0.4,1.2c0,0.4-0.2,0.8-0.5,1.1c-0.6,0.6-1.3,0.9-2.1,0.9c-0.5,0-1-0.1-1.4-0.2c-0.4,0.2-0.7,0.5-0.7,0.7
				c0,0.2,0.2,0.3,0.6,0.4c1.1,0.2,2.2,0.4,3.4,0.7c0.7,0.2,1.1,0.4,1.4,0.6c0.2,0.2,0.3,0.5,0.3,0.9c0,0.4-0.1,0.7-0.4,0.9
				c-0.6,0.6-1.6,0.8-3.1,0.8c-1.5,0-2.5-0.3-3.1-0.9c-0.2-0.2-0.4-0.5-0.4-0.8c0-0.2,0.2-0.5,0.5-0.7c0.6-0.4,1.1-0.6,1.5-0.7
				c-0.8-0.2-1.3-0.4-1.5-0.6c-0.2-0.2-0.2-0.3-0.2-0.5c0-0.2,0.1-0.5,0.3-0.6c0.1-0.1,0.4-0.3,0.9-0.6c-0.2-0.2-0.3-0.3-0.4-0.4
				c-0.3-0.3-0.5-0.7-0.5-1.1c0-0.6,0.2-1,0.5-1.4c0.5-0.5,1.2-0.8,2.2-0.8C107.2,88.7,107.8,88.9,108.3,89.3z M105.7,94.8
				c-0.8,0.3-1.3,0.5-1.5,0.7c-0.2,0.2-0.3,0.4-0.3,0.6c0,0.2,0.1,0.3,0.3,0.5c0.4,0.4,1.1,0.5,2.2,0.5c1.1,0,1.8-0.1,2.2-0.4
				c0.3-0.2,0.5-0.4,0.5-0.7c0-0.3-0.3-0.6-0.8-0.7C108.1,95.3,107.2,95.1,105.7,94.8z M108,90.7c0-0.5-0.2-0.9-0.5-1.2
				c-0.3-0.3-0.7-0.5-1.2-0.5c-0.5,0-0.9,0.2-1.2,0.5c-0.3,0.3-0.5,0.7-0.5,1.2c0,0.5,0.2,0.9,0.5,1.2c0.3,0.3,0.7,0.5,1.2,0.5
				c0.5,0,0.9-0.2,1.2-0.5C107.8,91.6,108,91.2,108,90.7z"/>
			<path class="st0" d="M113.3,90c0-0.4-0.1-0.6-0.2-0.8c-0.2-0.2-0.4-0.2-0.8-0.2H112v-0.4h0.7c0.6,0,1.1-0.2,1.6-0.5v5.9
				c0,0.4,0.1,0.6,0.2,0.8c0.2,0.2,0.4,0.2,0.8,0.2h0.3v0.4H112v-0.4h0.3c0.4,0,0.6-0.1,0.8-0.2c0.2-0.2,0.2-0.4,0.2-0.8V90z
				 M114.4,85.6c0,0.2-0.1,0.4-0.2,0.5c-0.2,0.2-0.3,0.2-0.5,0.2c-0.2,0-0.4-0.1-0.5-0.2c-0.2-0.2-0.2-0.3-0.2-0.5
				c0-0.2,0.1-0.4,0.2-0.5c0.2-0.2,0.3-0.2,0.5-0.2c0.2,0,0.4,0.1,0.5,0.2C114.3,85.2,114.4,85.4,114.4,85.6z"/>
			<path class="st0" d="M119,90.1c0.3-0.4,0.7-0.7,1.2-1c0.5-0.3,1-0.4,1.7-0.4c0.7,0,1.2,0.2,1.6,0.6c0.4,0.4,0.5,0.8,0.5,1.5v3.4
				c0,0.4,0.1,0.6,0.2,0.8c0.2,0.2,0.4,0.2,0.8,0.2h0.3v0.4h-3.5v-0.4h0.3c0.4,0,0.6-0.1,0.8-0.2c0.2-0.2,0.2-0.4,0.2-0.8v-3.3
				c0-0.5-0.2-0.9-0.5-1.2c-0.3-0.3-0.7-0.4-1.2-0.4c-0.4,0-0.8,0.2-1.3,0.5c-0.4,0.2-0.8,0.6-1.1,1v3.4c0,0.4,0.1,0.6,0.2,0.8
				c0.2,0.2,0.4,0.2,0.8,0.2h0.3v0.4h-3.5v-0.4h0.3c0.4,0,0.6-0.1,0.8-0.2c0.2-0.2,0.2-0.4,0.2-0.8V90c0-0.4-0.1-0.6-0.2-0.8
				c-0.2-0.2-0.4-0.2-0.8-0.2h-0.3v-0.4h0.7c0.6,0,1.1-0.2,1.6-0.5V90.1z"/>
			<path class="st0" d="M131,91.2c0-0.9,0-1.4-0.2-1.7c-0.3-0.3-0.6-0.5-1.1-0.5c-0.5,0-0.8,0.1-1.1,0.4c-0.2,0.3-0.4,0.5-0.4,0.8
				c0,0.4-0.2,0.7-0.6,0.7c-0.4,0-0.6-0.2-0.6-0.6c0-0.3,0.2-0.6,0.5-0.9c0.4-0.4,1.1-0.6,2.1-0.6c0.8,0,1.4,0.2,1.8,0.6
				c0.3,0.3,0.5,0.7,0.5,1v4.1c0,0.4,0.1,0.6,0.4,0.6c0.3,0,0.5-0.1,0.6-0.4l0.2,0.2c-0.3,0.5-0.7,0.7-1.2,0.7
				c-0.3,0-0.6-0.1-0.8-0.3c-0.1-0.1-0.2-0.4-0.2-0.7c-0.8,0.7-1.7,1-2.5,1c-0.6,0-1.1-0.2-1.4-0.5c-0.3-0.3-0.5-0.7-0.5-1.2
				c0-0.4,0.2-0.8,0.5-1.1c0.4-0.4,0.9-0.7,1.6-0.9C129.5,91.5,130.2,91.3,131,91.2z M131,91.6c-0.9,0.3-1.6,0.5-1.9,0.6
				c-0.4,0.2-0.8,0.4-1,0.6c-0.2,0.2-0.4,0.5-0.4,0.8c0,0.4,0.1,0.7,0.4,0.9c0.2,0.2,0.5,0.4,0.9,0.4c0.4,0,0.8-0.1,1-0.2
				c0.4-0.2,0.7-0.4,0.9-0.7V91.6z"/>
			<path class="st0" d="M143.8,88.7c0.7,0,1.3,0.2,1.6,0.5c0.4,0.4,0.5,1,0.5,1.9v3.1c0,0.4,0.1,0.6,0.2,0.8
				c0.2,0.2,0.4,0.2,0.8,0.2h0.3v0.4h-3.5v-0.4h0.3c0.4,0,0.6-0.1,0.8-0.2c0.2-0.2,0.2-0.4,0.2-0.8V91c0-0.7-0.1-1.2-0.4-1.4
				c-0.2-0.2-0.5-0.4-0.9-0.4c-0.7,0-1.5,0.4-2.3,1.2v3.6c0,0.4,0.1,0.6,0.2,0.8c0.2,0.2,0.4,0.2,0.8,0.2h0.3v0.4h-3.5v-0.4h0.3
				c0.4,0,0.6-0.1,0.8-0.2c0.2-0.2,0.2-0.4,0.2-0.8V91c0-0.7-0.1-1.2-0.4-1.4c-0.2-0.2-0.6-0.4-1-0.4c-0.7,0-1.4,0.4-2.2,1.2v3.6
				c0,0.4,0.1,0.6,0.2,0.8c0.2,0.2,0.4,0.2,0.8,0.2h0.3v0.4h-3.5v-0.4h0.3c0.4,0,0.6-0.1,0.8-0.2c0.2-0.2,0.2-0.4,0.2-0.8V90
				c0-0.4-0.1-0.6-0.2-0.8c-0.2-0.2-0.4-0.2-0.8-0.2h-0.3v-0.4h0.7c0.6,0,1.1-0.2,1.6-0.5V90c0.8-0.9,1.6-1.3,2.4-1.3
				c0.9,0,1.5,0.4,2,1.3C142.1,89.1,142.9,88.7,143.8,88.7z"/>
			<path class="st0" d="M149.8,90c0-0.4-0.1-0.6-0.2-0.8c-0.2-0.2-0.4-0.2-0.8-0.2h-0.3v-0.4h0.6c0.6,0,1.1-0.2,1.6-0.5v5.9
				c0,0.4,0.1,0.6,0.2,0.8c0.2,0.2,0.4,0.2,0.8,0.2h0.3v0.4h-3.5v-0.4h0.3c0.4,0,0.6-0.1,0.8-0.2c0.2-0.2,0.2-0.4,0.2-0.8V90z
				 M150.9,85.6c0,0.2-0.1,0.4-0.2,0.5c-0.2,0.2-0.3,0.2-0.5,0.2c-0.2,0-0.4-0.1-0.5-0.2c-0.2-0.2-0.2-0.3-0.2-0.5
				c0-0.2,0.1-0.4,0.2-0.5c0.2-0.2,0.3-0.2,0.5-0.2c0.2,0,0.4,0.1,0.5,0.2C150.8,85.2,150.9,85.4,150.9,85.6z"/>
		</g>
	</g>
</g>
</svg>
